<svg xmlns="http://www.w3.org/2000/svg" viewBox="0 0 273.06 45.41"><defs><style>.cls-1{fill:#fff;}</style></defs><title>Asset 4</title><g id="Layer_2" data-name="Layer 2"><g id="Layer_1-2" data-name="Layer 1"><path class="cls-1" d="M0,30.27l3.27-2.94A7.65,7.65,0,0,0,9.62,31.1c2.39,0,4.09-1.38,4.09-3.08a3.14,3.14,0,0,0-2.12-2.85,28,28,0,0,0-3-1.25C7.08,23.28,6,22.82,5.47,22.5a6.59,6.59,0,0,1-3.95-6.12,6.53,6.53,0,0,1,2.3-5.11,9.21,9.21,0,0,1,6.16-2,9.57,9.57,0,0,1,8.15,3.82l-2.95,3.12a6.77,6.77,0,0,0-5.43-2.71c-2.07,0-3.31,1.2-3.31,2.71a2.93,2.93,0,0,0,2.07,2.72L11,20c1.57.64,2.72,1.15,3.5,1.56,2.8,1.47,4.23,3.54,4.23,6.26a7,7,0,0,1-2.58,5.47,9.89,9.89,0,0,1-6.67,2.21A10.87,10.87,0,0,1,0,30.27Z"/><path class="cls-1" d="M25.85,13.25a12.68,12.68,0,0,1,9.43-3.82,12.49,12.49,0,0,1,9.39,3.82,12.62,12.62,0,0,1,3.73,9.2,12.75,12.75,0,0,1-3.73,9.29,12.46,12.46,0,0,1-9.39,3.78,12.64,12.64,0,0,1-9.43-3.78,12.87,12.87,0,0,1-3.68-9.29A12.74,12.74,0,0,1,25.85,13.25Zm15.09,3.36a7.35,7.35,0,0,0-5.66-2.49,7.51,7.51,0,0,0-5.7,2.49,8.27,8.27,0,0,0-2.3,5.84,8.31,8.31,0,0,0,2.3,5.89,7.64,7.64,0,0,0,5.7,2.44,7.48,7.48,0,0,0,5.66-2.44,8.14,8.14,0,0,0,2.35-5.89A8.11,8.11,0,0,0,40.94,16.61Z"/><path class="cls-1" d="M53.13,24.71V10.08h5.06V24.66c0,3.73,2.16,6.12,5.8,6.12s5.79-2.3,5.79-6.12V10.08h5.11V24.71c0,6.76-4.09,10.76-10.9,10.76C57.36,35.47,53.13,31.33,53.13,24.71Z"/><path class="cls-1" d="M97.84,33.4A11.13,11.13,0,0,1,91,35.47c-5.38,0-8.14-3.36-8.14-9.48V14.4H78.57V10.08h4.32V1.29h5v8.79h8.55V14.4H87.91V26.08c0,3.18,1.28,4.74,3.82,4.74a8.79,8.79,0,0,0,4.37-1.38Z"/><path class="cls-1" d="M101.25,34.87V0h4.92V13.2A9.23,9.23,0,0,1,114,9.43a9.66,9.66,0,0,1,6.91,2.67c1.88,1.79,2.8,4.32,2.8,7.68V34.87h-5.06V21.21c0-4.56-2.39-7.09-5.93-7.09-3.82,0-6.44,2.9-6.44,7.13V34.87Z"/><path class="cls-1" d="M146.47,33.4a11.16,11.16,0,0,1-6.86,2.07c-5.38,0-8.14-3.36-8.14-9.48V14.4h-4.28V10.08h4.32V1.29h5v8.79h8.55V14.4h-8.55V26.08c0,3.18,1.29,4.74,3.82,4.74a8.79,8.79,0,0,0,4.37-1.38Z"/><path class="cls-1" d="M168.87,10.08h4.87V34.87h-4.87v-3.4a10.68,10.68,0,0,1-8.47,4,11.63,11.63,0,0,1-8.88-3.77A13.29,13.29,0,0,1,148,22.31a12.7,12.7,0,0,1,3.49-9.2,11.83,11.83,0,0,1,8.88-3.63,10.58,10.58,0,0,1,8.47,4Zm-2,18.31a8.31,8.31,0,0,0,2.26-5.94,8.27,8.27,0,0,0-2.26-5.89,8,8,0,0,0-11.5,0,8.49,8.49,0,0,0-2.21,5.94,8.48,8.48,0,0,0,2.21,5.93,7.44,7.44,0,0,0,5.75,2.39A7.53,7.53,0,0,0,166.84,28.39Z"/><path class="cls-1" d="M180.27,34.87V10.08h4.83v3.54a7.39,7.39,0,0,1,7-4.19,10,10,0,0,1,3,.42l-.46,4.92a7.93,7.93,0,0,0-2.72-.46c-3.86,0-6.58,2.67-6.58,7.86v12.7Z"/><path class="cls-1" d="M217,10.08h4.88V32.34a12.63,12.63,0,0,1-3.68,9.53,13.55,13.55,0,0,1-9.75,3.54,18.56,18.56,0,0,1-11.09-3.54L199.55,38a14.81,14.81,0,0,0,8.78,2.95c5.29,0,8.51-3.27,8.51-7.87V31.24a10.61,10.61,0,0,1-8.32,3.68,11.87,11.87,0,0,1-8.93-3.64,12.62,12.62,0,0,1-3.49-9.11,12.16,12.16,0,0,1,3.63-9.06,12.28,12.28,0,0,1,9-3.63A10.49,10.49,0,0,1,217,13.25Zm-2.11,18a8,8,0,0,0,2.25-5.84,8,8,0,0,0-2.25-5.84,7.74,7.74,0,0,0-5.71-2.3,7.59,7.59,0,0,0-5.66,2.34,7.83,7.83,0,0,0-2.25,5.8,8.12,8.12,0,0,0,2.25,5.89,7.71,7.71,0,0,0,5.66,2.3A7.59,7.59,0,0,0,214.87,28.06Z"/><path class="cls-1" d="M251.58,24.43H232.21c.73,3.86,3.45,6.49,8.23,6.49a15.48,15.48,0,0,0,8.42-2.67L251,32a18.7,18.7,0,0,1-10.72,3.45c-9.3,0-13.3-6.48-13.3-13a12.76,12.76,0,0,1,3.5-9.24,12.18,12.18,0,0,1,9.15-3.68,11.82,11.82,0,0,1,8.74,3.36A12.33,12.33,0,0,1,251.76,22,17.63,17.63,0,0,1,251.58,24.43Zm-19.37-4.14h14.44a6.88,6.88,0,0,0-7-6.44C235.79,13.85,232.94,16.42,232.21,20.29Z"/><path class="cls-1" d="M273.06,33.4a11.14,11.14,0,0,1-6.86,2.07c-5.38,0-8.14-3.36-8.14-9.48V14.4h-4.28V10.08h4.32V1.29h5v8.79h8.56V14.4h-8.56V26.08c0,3.18,1.29,4.74,3.82,4.74a8.79,8.79,0,0,0,4.37-1.38Z"/></g></g></svg>